# xmcd
#
# Track frame offsets:
# 182
# 17810
# 37505
# 53852
# 71255
# 92517
# 118917
# 136112
# 160987
# 182482
#
# Disc length: 2903 seconds
#
#
# Revision: 4
# Processed by: cddbd v1.5.2PL0 Copyright (c) Steve Scherf et al.
# Submitted via: FreeRIP 2.96 
#
DISCID=740b550a
DTITLE=Curtis Mayfield - Superfly And Other Hits
DYEAR=1900
DGENRE=R&B
TTITLE0=Superfly
TTITLE1=Only You Babe
TTITLE2=Can't Say Nuthin'
TTITLE3=Sweet Exorcist
TTITLE4=Between You Baby And Me (with Linda Clifford)
TTITLE5=Get Down
TTITLE6=Party Night
TTITLE7=Do Do Wap Is Strong In Here
TTITLE8=We Got To Have Peace
TTITLE9=(Don't Worry) If There's A Hell Below We're All To Go
EXTD=
EXTT0=
EXTT1=
EXTT2=
EXTT3=
EXTT4=
EXTT5=
EXTT6=
EXTT7=
EXTT8=
EXTT9=
PLAYORDER=
